<svg id="Layer_1" data-name="Layer 1" xmlns="http://www.w3.org/2000/svg" viewBox="0 0 500 206.26"><title>Cloud</title><path d="M54.68,204.52A16,16,0,0,1,52,206.26,24.3,24.3,0,0,0,54.68,204.52Z"/><path d="M500,0V164.06a34,34,0,0,1-34-34c0-.67,0-1.33.06-2A26.93,26.93,0,0,1,424.4,114a41,41,0,0,1-44.6,8.72,26.93,26.93,0,0,1-48.27-16.42,26.47,26.47,0,0,1,.67-6,15.87,15.87,0,0,1-12-14.27A17.32,17.32,0,0,1,314,87.2a17.56,17.56,0,0,1-16.45-11.42,15.73,15.73,0,0,1-6.39,1.89,26.8,26.8,0,0,1-16,8.44A17.53,17.53,0,0,1,247.75,98a10.18,10.18,0,0,1-7.48,3.25h0a28,28,0,0,1-14.06,32.16,17.54,17.54,0,0,1-31.49,15.05A10.19,10.19,0,0,1,186,138.38v0a17.35,17.35,0,0,1-8.67,2.3,17.53,17.53,0,0,1-17.53-17.53,18.1,18.1,0,0,1,.11-2,13.43,13.43,0,0,1-6.92,1.91,14,14,0,0,1-2.61-.25c0,.11,0,.23,0,.35a17.54,17.54,0,0,1-17.54,17.54c-.36,0-.72,0-1.07,0a28,28,0,0,1-56,0c0-.41,0-.82,0-1.22h0a10.2,10.2,0,0,1-10.18-9.56A13.46,13.46,0,0,1,58,125.39,24.69,24.69,0,0,1,55,128l-.36.28A24.3,24.3,0,0,1,52,130.06a26.68,26.68,0,0,1-13.45,3.61,27.17,27.17,0,0,1-4.72-.41A34,34,0,0,1,0,164.06V0Z"/><path d="M63.48,204.52a16,16,0,0,1-2.66,1.74A24.3,24.3,0,0,0,63.48,204.52Z"/></svg>